:SAMPLES-PER-SECOND 30
:FULLY-SPECIFIED
:DEGREES
390
root  -68.3819 40.9884 -5.41236 -178.426 52.4351 177.93
RightUpLeg  -17.0068 -3.20224 -6.06437
RightLeg  20.7561 4.79159 1.79295
RightFoot  -7.98974 -0.170804 3.98976
RightToes  0.000482159 0.542163 -0.142577
Spine  12.7292 0.0200057 -1.80796
Spine1  0.800268 -0.146029 0.0524408
HEad  -12.5456 -22.671 10.5788
LeftShoulder1  7.57117 -11.5192 -43.8597
LeftArm  -14.6057 27.4952 -25.2854
LeftForeArm  35.8263 -39.5061 -6.97254
LeftHand  -0.25398 0.0180481 5.50724
RightShoulder  4.01717 6.75853 33.1986
RightArm  1.2676 -24.0357 39.1588
RightForeArm  -13.4258 20.963 5.84567
RightHand  -2.81648 7.52613 -25.3202
LeftUpLeg  -7.92766 9.23597 4.56157
LeftLeg  12.4384 -1.085 -2.19497
LeftFoot  -6.24259 0.378831 -7.66906
LeftToes  1.06245e-005 4.65855e-005 -8.18503e-006
391
root  -68.881 41.1593 -5.7578 -178.446 57.2305 177.698
RightUpLeg  -16.9557 -8.79072 -4.41628
RightLeg  21.9534 4.40564 1.73974
RightFoot  -8.60001 -0.167732 4.55839
RightToes  0.000482159 0.542163 -0.142577
Spine  11.716 0.325984 -2.1265
Spine1  0.889339 0.255337 -0.433192
HEad  -11.6556 -20.6959 9.09392
LeftShoulder1  7.31161 -11.1067 -43.5329
LeftArm  -16.5866 28.3178 -25.1512
LeftForeArm  35.8858 -41.5435 -7.57425
LeftHand  -0.25398 0.0180481 5.50724
RightShoulder  4.05884 6.77882 33.5248
RightArm  0.330567 -25.597 40.4596
RightForeArm  -9.1412 19.2417 6.05161
RightHand  -2.45207 6.53698 -23.929
LeftUpLeg  -6.34779 8.75514 4.46435
LeftLeg  9.85795 3.95539 -3.00012
LeftFoot  -5.2553 0.39873 -6.89466
LeftToes  1.06245e-005 4.65855e-005 -8.18503e-006
392
root  -69.3198 41.257 -6.05854 -178.666 61.5073 177.356
RightUpLeg  -16.4277 -11.7164 -3.54423
RightLeg  23.2489 3.4028 1.38299
RightFoot  -8.68441 -0.169167 4.74706
RightToes  0.000482159 0.542163 -0.142577
Spine  10.9576 0.343431 -2.26573
Spine1  0.707939 0.412835 -1.15785
HEad  -11.2722 -18.2434 8.10666
LeftShoulder1  7.1114 -10.7908 -43.2605
LeftArm  -18.3918 29.422 -24.8577
LeftForeArm  34.9806 -43.3179 -8.19321
LeftHand  -0.25398 0.0180481 5.50724
RightShoulder  4.10675 6.80164 33.8996
RightArm  -0.455017 -27.0555 41.3914
RightForeArm  -2.98261 17.8423 6.15713
RightHand  -2.21562 6.00841 -22.6794
LeftUpLeg  -5.04417 7.93149 4.44674
LeftLeg  7.79486 8.87283 -4.11856
LeftFoot  -4.70721 0.413788 -6.64564
LeftToes  1.06245e-005 4.65855e-005 -8.18503e-006
393
root  -69.7123 41.3027 -6.32172 -179.517 64.9873 176.609
RightUpLeg  -15.117 -13.7044 -3.51983
RightLeg  24.1856 0.940349 0.241843
RightFoot  -8.9478 -0.146062 4.0658
RightToes  0.000482159 0.542163 -0.142577
Spine  10.507 0.133068 -2.40985
Spine1  0.609413 0.292391 -1.7264
HEad  -11.514 -15.7976 7.5048
LeftShoulder1  7.01569 -10.6202 -43.1879
LeftArm  -19.7007 30.2854 -24.4288
LeftForeArm  34.1878 -44.5125 -8.64374
LeftHand  -0.25398 0.0180481 5.50724
RightShoulder  4.11754 6.77089 34.1215
RightArm  -0.690608 -28.7152 42.054
RightForeArm  0.519619 17.6249 6.03625
RightHand  -2.1527 5.99689 -22.0753
LeftUpLeg  -3.89753 7.50107 4.15159
LeftLeg  6.27155 12.6453 -5.07859
LeftFoot  -4.45476 0.415066 -6.4515
LeftToes  1.06245e-005 4.65855e-005 -8.18503e-006
394
root  -70.0649 41.3336 -6.54008 178.906 67.6076 175.196
RightUpLeg  -13.2237 -15.7749 -4.2587
RightLeg  24.6902 -2.33022 -1.38935
RightFoot  -9.57777 -0.115204 3.25488
RightToes  0.000482159 0.542163 -0.142577
Spine  10.1301 -0.209207 -2.84019
Spine1  0.639702 -0.102444 -1.65172
HEad  -11.9846 -13.7207 6.86643
LeftShoulder1  6.94382 -10.4734 -43.1933
LeftArm  -20.4015 30.5745 -24.1691
LeftForeArm  34.0371 -44.6453 -8.70108
LeftHand  -0.25398 0.0180481 5.50724
RightShoulder  4.07097 6.67125 34.0562
RightArm  -0.613593 -30.464 42.5028
RightForeArm  0.187824 18.2643 5.83953
RightHand  -2.0655 5.61663 -21.9134
LeftUpLeg  -2.9343 7.25634 3.41454
LeftLeg  4.82779 15.2634 -5.71115
LeftFoot  -3.97876 0.411967 -6.03231
LeftToes  1.06245e-005 4.65855e-005 -8.18503e-006
395
root  -70.387 41.3574 -6.70637 177.03 69.6884 173.357
RightUpLeg  -11.2218 -17.8173 -5.36809
RightLeg  24.676 -5.15092 -2.7974
RightFoot  -9.89046 -0.0919645 2.00081
RightToes  0.000482159 0.542163 -0.142577
Spine  9.7093 -0.574578 -3.30624
Spine1  0.550381 -0.572754 -1.23517
HEad  -12.3114 -11.9773 6.15846
LeftShoulder1  6.84145 -10.2816 -43.1442
LeftArm  -20.4366 30.3876 -24.125
LeftForeArm  34.1087 -43.7574 -8.39676
LeftHand  -0.25398 0.0180481 5.50724
RightShoulder  4.0077 6.57046 33.8306
RightArm  -1.0777 -31.8451 42.766
RightForeArm  -1.35578 18.6827 5.76262
RightHand  -1.94948 4.88798 -22.1198
LeftUpLeg  -2.30668 6.83351 2.49711
LeftLeg  3.41727 17.5553 -6.17647
LeftFoot  -3.35479 0.410923 -5.5948
LeftToes  1.06245e-005 4.65855e-005 -8.18503e-006
396
root  -70.6874 41.3468 -6.81049 174.872 71.55 171.098
RightUpLeg  -9.18503 -19.2162 -6.64351
RightLeg  23.6768 -6.44784 -3.3071
RightFoot  -9.99987 -0.07364 0.451869
RightToes  0.000482159 0.542163 -0.142577
Spine  9.21551 -0.81442 -3.62377
Spine1  0.394457 -0.863 -1.01115
HEad  -12.5354 -10.5063 5.56764
LeftShoulder1  6.75841 -10.1394 -43.0591
LeftArm  -19.9902 30.0054 -24.184
LeftForeArm  34.0248 -42.4674 -7.98104
LeftHand  -0.25398 0.0180481 5.50724
RightShoulder  3.96569 6.51843 33.6195
RightArm  -2.52724 -32.5103 42.9364
RightForeArm  -1.36592 18.2386 5.83153
RightHand  -1.92108 4.57709 -22.4524
LeftUpLeg  -2.2154 6.45606 1.61227
LeftLeg  2.69756 19.8191 -6.4682
LeftFoot  -3.05177 0.403847 -5.31733
LeftToes  1.06245e-005 4.65855e-005 -8.18503e-006
397
root  -70.9683 41.3097 -6.84354 172.221 73.1476 168.3
RightUpLeg  -6.73058 -19.7049 -8.00986
RightLeg  20.9766 -6.06299 -2.81047
RightFoot  -10.6458 -0.0723561 0.319015
RightToes  0.000482159 0.542163 -0.142577
Spine  8.58741 -0.891906 -3.88011
Spine1  0.502215 -0.947178 -0.952391
HEad  -12.8878 -9.46067 5.14045
LeftShoulder1  6.73287 -10.1183 -42.9567
LeftArm  -19.4755 29.5555 -24.3423
LeftForeArm  34.1615 -41.2701 -7.59835
LeftHand  -0.25398 0.0180481 5.50724
RightShoulder  3.93528 6.46706 33.5187
RightArm  -4.64429 -32.4674 43.0168
RightForeArm  0.357928 17.2473 5.91291
RightHand  -1.95972 4.76472 -22.487
LeftUpLeg  -2.50248 6.21256 0.825207
LeftLeg  2.6004 21.8178 -6.62602
LeftFoot  -2.9731 0.384823 -5.01084
LeftToes  1.06245e-005 4.65855e-005 -8.18503e-006
